<svg xmlns="http://www.w3.org/2000/svg" viewBox="0 0 820 560" role="img" aria-labelledby="title desc">
  <title id="title">storybook math adventure</title>
  <desc id="desc">Original fairy-tale style math characters around a glowing workbook.</desc>
  <defs>
    <linearGradient id="sky" x1="0" x2="1" y1="0" y2="1">
      <stop offset="0" stop-color="#fef6c9"/>
      <stop offset=".5" stop-color="#cfeef2"/>
      <stop offset="1" stop-color="#eadcff"/>
    </linearGradient>
    <linearGradient id="book" x1="0" x2="1">
      <stop offset="0" stop-color="#fff9df"/>
      <stop offset="1" stop-color="#f7df9d"/>
    </linearGradient>
    <filter id="soft" x="-20%" y="-20%" width="140%" height="140%">
      <feDropShadow dx="0" dy="18" stdDeviation="16" flood-color="#3c2a54" flood-opacity=".22"/>
    </filter>
  </defs>

  <rect width="820" height="560" rx="36" fill="url(#sky)"/>
  <path d="M0 434c96-58 168-48 248-12 92 42 155 20 238-20 94-46 188-28 334 32v126H0z" fill="#95caa7"/>
  <path d="M0 472c98-38 196-34 286 4 99 42 195 16 282-14 82-28 150-18 252 22v76H0z" fill="#68a77c"/>

  <g opacity=".72">
    <circle cx="102" cy="80" r="26" fill="#fff"/>
    <circle cx="132" cy="80" r="34" fill="#fff"/>
    <circle cx="165" cy="84" r="24" fill="#fff"/>
    <rect x="103" y="80" width="72" height="28" rx="14" fill="#fff"/>
    <circle cx="640" cy="96" r="28" fill="#fff"/>
    <circle cx="672" cy="92" r="36" fill="#fff"/>
    <circle cx="710" cy="100" r="24" fill="#fff"/>
    <rect x="638" y="96" width="84" height="30" rx="15" fill="#fff"/>
  </g>

  <g transform="translate(76 236)">
    <path d="M58 130V54l48-40 48 40v76z" fill="#8b6bd6"/>
    <path d="M86 130V84c0-16 40-16 40 0v46z" fill="#f6d889"/>
    <path d="M38 130V70h42v60zM132 130V70h42v60z" fill="#6f55bd"/>
    <path d="M58 54l48-40 48 40z" fill="#f7c65b"/>
    <rect x="72" y="72" width="22" height="24" rx="8" fill="#bce7f0"/>
    <rect x="118" y="72" width="22" height="24" rx="8" fill="#bce7f0"/>
  </g>

  <g filter="url(#soft)" transform="translate(206 218)">
    <path d="M98 72c52-32 112-32 164 0v184c-54-30-110-30-164 0z" fill="url(#book)" stroke="#7f6233" stroke-width="5"/>
    <path d="M262 72c52-32 112-32 164 0v184c-54-30-110-30-164 0z" fill="#fff8d7" stroke="#7f6233" stroke-width="5"/>
    <path d="M262 72v184" stroke="#b38b49" stroke-width="5"/>
    <path d="M132 112h86M132 146h72M302 112h82M302 146h62M302 180h92" stroke="#9a7b45" stroke-width="10" stroke-linecap="round"/>
    <rect x="132" y="178" width="72" height="20" rx="10" fill="#e97953"/>
    <rect x="214" y="178" width="22" height="20" rx="8" fill="#5ca97b"/>
    <path d="M154 232l24-30 24 30z" fill="#5aaec7"/>
    <circle cx="364" cy="222" r="20" fill="#5ca97b"/>
    <path d="M342 222h44M364 200v44" stroke="#fff" stroke-width="7" stroke-linecap="round"/>
  </g>

  <g transform="translate(124 146)">
    <path d="M68 34c20-28 54-28 74 0l-18 28H86z" fill="#5740a8"/>
    <circle cx="105" cy="82" r="38" fill="#ffd4a8"/>
    <path d="M70 82c4-38 66-52 84-8-22-4-50-14-84 8z" fill="#4d3478"/>
    <circle cx="92" cy="82" r="4" fill="#35263f"/>
    <circle cx="120" cy="82" r="4" fill="#35263f"/>
    <path d="M96 104c10 8 22 8 32 0" fill="none" stroke="#9b4c4e" stroke-width="5" stroke-linecap="round"/>
    <path d="M66 192c4-58 74-58 78 0z" fill="#f47c63"/>
    <path d="M84 130l21 26 21-26" fill="#fff7d8"/>
    <path d="M48 146l-34-30M160 146l42-38" stroke="#ffd4a8" stroke-width="14" stroke-linecap="round"/>
    <circle cx="213" cy="98" r="14" fill="#ffe45c"/>
    <path d="M213 64v20M213 112v20M179 98h20M227 98h20" stroke="#ffe45c" stroke-width="8" stroke-linecap="round"/>
  </g>

  <g transform="translate(596 166)">
    <path d="M38 42c16-30 62-30 78 0l-14 34H52z" fill="#236f91"/>
    <circle cx="77" cy="88" r="34" fill="#ffd9b8"/>
    <path d="M43 84c14-44 74-40 76 0-26-10-48-10-76 0z" fill="#1d5570"/>
    <circle cx="66" cy="90" r="4" fill="#2f2735"/>
    <circle cx="92" cy="90" r="4" fill="#2f2735"/>
    <path d="M69 110c8 5 16 5 24 0" fill="none" stroke="#88454a" stroke-width="5" stroke-linecap="round"/>
    <path d="M40 198c5-58 68-58 74 0z" fill="#3aa17e"/>
    <path d="M78 132l-16 30h32z" fill="#fff2be"/>
    <rect x="4" y="144" width="46" height="12" rx="6" fill="#e5b54f" transform="rotate(-20 4 144)"/>
    <path d="M12 134l-12-16M34 128l2-20M54 124l12-16" stroke="#e5b54f" stroke-width="6" stroke-linecap="round"/>
  </g>

  <g fill="#fff7b4" opacity=".95">
    <path d="M388 76l10 24 24 10-24 10-10 24-10-24-24-10 24-10z"/>
    <path d="M520 54l7 16 16 7-16 7-7 16-7-16-16-7 16-7z"/>
    <path d="M282 106l6 14 14 6-14 6-6 14-6-14-14-6 14-6z"/>
  </g>
</svg>
